<svg xmlns="http://www.w3.org/2000/svg" width="17.875" height="17.868" viewBox="0 0 17.875 17.868"><defs><style>.a{fill:#fff;stroke:#041e50;stroke-width:0.3px;}</style></defs><g transform="translate(0.15 0.15)"><g transform="translate(0.006 0)"><path class="a" d="M17.49.334a.824.824,0,0,0-1.166,0L.4,16.252a.825.825,0,1,0,1.166,1.166L17.49,1.5A.824.824,0,0,0,17.49.334Z" transform="translate(-0.163 -0.092)"/></g><g transform="translate(0 0.006)"><path class="a" d="M3.918.256A3.918,3.918,0,1,0,7.836,4.174,3.923,3.923,0,0,0,3.918.256Zm0,6.186A2.268,2.268,0,1,1,6.186,4.174,2.271,2.271,0,0,1,3.918,6.442Z" transform="translate(0 -0.256)"/></g><g transform="translate(9.739 9.731)"><path class="a" d="M287.63,283.6a3.918,3.918,0,1,0,3.918,3.918A3.923,3.923,0,0,0,287.63,283.6Zm0,6.186a2.268,2.268,0,1,1,2.268-2.268A2.271,2.271,0,0,1,287.63,289.782Z" transform="translate(-283.712 -283.596)"/></g></g></svg>