<svg xmlns="http://www.w3.org/2000/svg" width="19.905" height="19.905" viewBox="0 0 19.905 19.905"><defs><style>.a{fill:#fff;stroke:#041e50;stroke-width:0.5px;}</style></defs><g transform="translate(0.25 0.25)"><path class="a" d="M18.522,4.41H3.011l2.9-2.9A.882.882,0,0,0,4.668.258L.258,4.668a.882.882,0,0,0,0,1.247l4.41,4.41A.882.882,0,1,0,5.915,9.078l-2.9-2.9H18.522a.882.882,0,1,0,0-1.764Z" transform="translate(0 0.001)"/><path class="a" d="M14.736,150.259a.882.882,0,0,0-1.247,1.247l2.9,2.9H.882a.882.882,0,1,0,0,1.764H16.393l-2.9,2.9a.882.882,0,1,0,1.247,1.247l4.41-4.41a.882.882,0,0,0,0-1.247Z" transform="translate(0 -141.18)"/></g></svg>